<svg width="73" height="72" viewBox="0 0 73 72" fill="none" xmlns="http://www.w3.org/2000/svg">
<path d="M61.5094 29.6224C63.8002 31.1561 64.9406 33.5504 65.7652 36.0084C66.2739 37.5253 67.0785 38.2654 68.4882 38.6739C73.1563 40.0268 72.6443 40.6228 72.6476 44.3566C72.6476 44.9694 72.6243 45.5856 72.6509 46.1984C72.7905 49.2122 72.109 49.7078 69.4657 50.6521C68.6412 50.9468 67.7368 51.2315 66.8358 51.4156C65.5092 51.6902 64.5084 52.4738 63.8235 53.7229C62.0979 56.8773 59.3582 59.0305 56.3193 60.6982C54.7966 61.532 54.4475 62.7007 54.1981 64.1138C53.8457 66.1197 53.573 68.1423 53.174 70.1381C52.9746 71.136 52.2065 71.6316 51.1991 71.645C49.7029 71.6651 48.2067 71.6852 46.7106 71.6383C45.6832 71.6048 44.9085 71.3035 44.8453 69.9774C44.7921 68.8522 44.3699 67.7505 44.2336 66.6254C44.1039 65.5437 43.5586 65.1486 42.5512 65.2892C39.0668 65.7781 35.5657 65.8116 32.0813 65.4198C30.4654 65.239 30.4787 66.4981 30.2926 67.3051C29.2818 71.6383 29.3284 71.6484 24.9296 71.6484C24.4309 71.6484 23.9322 71.6484 23.4334 71.6484C22.3063 71.6517 21.628 71.1595 21.4252 69.9774C21.0794 67.9615 20.5541 65.969 20.3147 63.9431C20.1684 62.7107 19.6431 62.0611 18.6324 61.4048C13.7848 58.2603 10.3535 54.0477 9.12668 48.211C7.2681 39.357 10.0344 29.5722 18.4395 24.7601C18.762 24.576 19.0546 24.3817 19.4403 24.4353" stroke="#FFC83A" stroke-width="2" stroke-miterlimit="10" stroke-linecap="round" stroke-linejoin="round"/>
<path d="M45.2177 7.856C43.5454 5.16031 41.464 2.81623 38.5548 1.52364C33.0023 -0.940986 26.4324 0.502295 22.5756 5.15026C20.0222 8.23105 18.8585 11.6132 19.294 15.558C19.7163 19.3889 21.3787 22.5534 24.4342 24.9376C25.1191 25.4701 25.8373 25.9891 26.3992 26.6354C26.6452 26.92 26.735 26.9267 27.0808 27.0038C28.2279 27.2683 29.3317 27.0808 30.4156 26.9133C32.7663 26.555 35.077 27.0138 37.4011 27.121C38.465 27.1712 39.3627 26.9736 40.0643 26.1063C41.1083 24.8171 42.508 23.9196 43.6285 22.6572C45.9692 20.0184 46.4546 16.9812 46.5444 13.7128" stroke="#FFC83A" stroke-width="2" stroke-miterlimit="10" stroke-linecap="round" stroke-linejoin="round"/>
<path d="M48.3764 22.4228C48.1104 24.7735 47.6981 27.1042 48.526 29.4617C49.7661 33.0046 54.4674 35.3554 57.8422 33.9523C58.67 33.6074 59.4514 33.0113 59.8371 32.1306C60.4721 30.6739 61.4396 29.4215 61.4263 27.6132C61.413 25.6777 61.8885 23.7287 61.8685 21.753C61.8619 20.9895 61.689 20.2897 61.5061 19.5797C61.2002 18.3776 60.3757 17.8987 59.1854 18.0762C56.9145 18.4144 50.6273 20.6446 48.6324 22.3257C47.7114 21.5153 46.2684 21.7631 45.3873 20.7518" stroke="#FFC83A" stroke-width="2" stroke-miterlimit="10" stroke-linecap="round" stroke-linejoin="round"/>
<path d="M55.8572 38.1616C55.7143 39.0624 55.8938 39.9464 56.3826 40.653C56.8979 41.3997 57.6892 41.9288 58.68 41.6643C59.857 41.3495 60.5552 40.5023 60.8312 39.3302C60.9176 38.9585 60.8445 38.5534 60.8445 38.1616" stroke="#FFC83A" stroke-width="2" stroke-miterlimit="10" stroke-linecap="round" stroke-linejoin="round"/>
<path d="M0.33252 44.3566C2.91259 44.6111 4.5617 43.0339 5.75532 41.1352C6.5832 39.8158 6.68295 38.2118 5.70545 36.6212C5.04381 35.5462 4.2126 35.2449 3.15863 35.1578C2.24097 35.0841 1.79877 35.7405 1.50286 36.4872C1.15375 37.3713 1.19365 38.0611 2.14123 38.6907C3.89341 39.8493 5.88499 39.8326 7.81006 40.1708C7.97963 40.2009 8.14255 40.2779 8.30879 40.3349" stroke="#FFC83A" stroke-width="2" stroke-miterlimit="10" stroke-linecap="round" stroke-linejoin="round"/>
<path d="M36.0744 8.69316C34.9008 8.0904 33.7604 7.90622 32.4005 8.29801C31.2734 8.62284 30.522 9.11174 30.2759 10.2034C29.9933 11.4424 30.4654 12.4537 31.5959 13.0297C32.5002 13.4918 33.4644 13.8535 34.4153 14.2118C35.9315 14.7811 36.623 15.9698 36.4069 17.7346C36.2473 19.0406 35.3397 19.8108 33.7471 19.9045C32.344 19.9849 30.9608 19.9715 29.9069 18.7526C29.6176 18.4211 29.5677 18.113 29.591 17.7346" stroke="#FFC83A" stroke-width="2" stroke-miterlimit="10" stroke-linecap="round" stroke-linejoin="round"/>
<path d="M33.7471 14.3859C33.0588 16.1339 33.5709 17.9623 33.4146 19.7438" stroke="#FFC83A" stroke-width="2" stroke-miterlimit="10" stroke-linecap="round" stroke-linejoin="round"/>
<path d="M33.2484 8.35831C33.501 10.0326 33.501 11.707 33.2484 13.3813" stroke="#FFC83A" stroke-width="2" stroke-miterlimit="10" stroke-linecap="round" stroke-linejoin="round"/>
</svg>
