<svg width="31" height="49" viewBox="0 0 31 49" fill="none" xmlns="http://www.w3.org/2000/svg">
<g clip-path="url(#clip0)">
<path d="M18.0559 17.3832C20.7282 17.3832 23.4085 17.2624 26.0807 17.4154C29.066 17.5846 30.3981 16.5293 30.1413 13.3556C29.9086 10.4235 30.0049 7.45109 30.1172 4.50288C30.2216 1.85271 29.6518 0.322211 26.482 0.402763C19.2596 0.588033 12.0372 0.571923 4.81488 0.410818C1.75741 0.346376 0.698132 1.65132 0.786405 4.49482C0.858629 6.77445 0.858629 9.06214 0.786405 11.3418C0.625908 16.7227 0.802455 17.8021 6.81307 17.3832" stroke="#797979" stroke-miterlimit="10" stroke-linecap="round" stroke-linejoin="round"/>
<path d="M1.60497 28.2578C0.0802511 29.8124 0.890761 31.7537 0.842612 33.4937C0.722239 38.4557 0.802488 43.4338 0.802488 48.5972C10.5687 48.5972 19.9257 48.5972 29.7241 48.5972C31.0482 41.5811 30.6389 34.7261 30.021 27.855C21.1294 27.855 12.5749 27.8711 4.01243 27.8389C2.8087 27.8308 1.60497 27.5892 0.401245 27.4522" stroke="#797979" stroke-miterlimit="10" stroke-linecap="round" stroke-linejoin="round"/>
<path d="M15.2473 28.6605C14.8861 35.1047 16.3146 41.5489 15.2473 47.9931" stroke="#797979" stroke-miterlimit="10" stroke-linecap="round" stroke-linejoin="round"/>
<path d="M12.8397 20.6053C16.7077 22.2325 20.993 20.6939 24.9011 21.8619C24.877 24.1093 23.6492 25.4868 22.8708 27.0495" stroke="#797979" stroke-miterlimit="10" stroke-linecap="round" stroke-linejoin="round"/>
<path d="M18.8583 13.7583C18.2485 11.7768 16.8923 10.5524 14.862 11.0034C12.7113 11.4868 12.5348 13.5328 12.4545 15.3694C12.3823 17.1093 12.4385 18.8573 12.4385 20.6053C10.9779 20.7261 10.7773 19.5903 10.4323 18.5915" stroke="#797979" stroke-miterlimit="10" stroke-linecap="round" stroke-linejoin="round"/>
<path d="M11.2348 20.6053C9.87858 21.4189 8.35386 21.6364 6.86123 21.3061C5.76985 24.0529 7.76002 25.3418 8.42608 27.0495" stroke="#797979" stroke-miterlimit="10" stroke-linecap="round" stroke-linejoin="round"/>
</g>
<defs>
<clipPath id="clip0">
<rect width="31" height="49" fill="white"/>
</clipPath>
</defs>
</svg>
