<svg width="43" height="40" viewBox="0 0 43 40" fill="none" xmlns="http://www.w3.org/2000/svg">
<g clip-path="url(#clip0)">
<path d="M39.0266 14.9917C39.0266 10.2745 39.0266 5.55739 39.0266 0.432599C27.8049 0.432599 16.9988 0.457558 6.19267 0.41596C4.11457 0.407641 3.34983 1.83027 3.34983 3.34441C3.35815 7.22128 2.80122 11.1398 3.69895 14.9917" stroke="#797979" stroke-miterlimit="10" stroke-linecap="round" stroke-linejoin="round"/>
<path d="M31.5455 11.6639C29.7666 14.426 27.0152 13.4443 24.9454 12.7621C22.9006 12.0882 20.4651 11.6639 19.3512 8.802C18.2623 5.9817 13.7736 6.82197 11.5043 9.07654C6.81611 13.7604 5.0622 20.0582 1.62918 25.3993C-0.706602 29.0349 1.13875 33.178 0.623381 37.0716C0.374009 38.9767 3.40803 39.7338 5.77706 39.5591C16.3006 38.802 26.8324 38.8186 37.3642 39.5508C39.5919 39.7088 41.778 39.2762 42.2435 37.0133C42.8753 34.01 40.6143 33.6689 38.1954 33.6855C26.0011 33.7438 13.8151 33.7105 1.62087 33.7105" stroke="#797979" stroke-miterlimit="10" stroke-linecap="round" stroke-linejoin="round"/>
<path d="M41.5204 33.2945C43.2909 30.9401 42.5677 28.4193 41.4622 26.2562C38.4032 20.2912 35.4523 14.2513 31.5788 8.73544C30.1075 6.63894 28.0959 7.16306 26.1425 7.08819C23.15 6.98004 23.4409 9.47588 22.8175 11.2479" stroke="#797979" stroke-miterlimit="10" stroke-linecap="round" stroke-linejoin="round"/>
<path d="M10.7645 11.2479C14.2973 14.0516 16.4751 14.1514 19.9082 11.6639" stroke="#797979" stroke-miterlimit="10" stroke-linecap="round" stroke-linejoin="round"/>
</g>
<defs>
<clipPath id="clip0">
<rect width="43" height="40" fill="white"/>
</clipPath>
</defs>
</svg>
