<svg width="39" height="37" viewBox="0 0 39 37" fill="none" xmlns="http://www.w3.org/2000/svg">
<g clip-path="url(#clip0)">
<path d="M29.8918 30.4705C29.8918 32.7057 29.8918 34.8186 29.8918 36.9315C29.6073 36.9364 29.3276 36.9461 29.0431 36.951C28.9198 34.8088 28.7965 32.6617 28.6685 30.3727C22.5186 30.3727 16.4777 30.3727 10.0907 30.3727C10.0907 32.5981 10.0907 34.7354 10.0907 36.8728C9.76355 36.9168 9.43163 36.9559 9.10446 36.9999C8.97169 35.9875 8.78677 34.9751 8.72513 33.9578C8.65874 32.8329 8.7109 31.6982 8.7109 30.4705C7.90008 30.2602 7.23151 30.0793 6.5582 29.913C2.53254 28.9348 0.100081 25.7948 0.052665 21.4859C0.0289568 19.1235 0.152239 16.7563 0.0194735 14.3989C-0.127517 11.8067 0.569504 9.88455 3.2675 9.18025C3.2675 7.42929 3.22008 5.8006 3.27698 4.17681C3.36707 1.7509 4.75637 0.097763 7.09874 0.0684173C15.316 -0.0196197 23.5333 -0.0245106 31.7458 0.0635264C34.2731 0.0879811 35.577 1.68732 35.6339 4.29419C35.6529 5.10609 35.6766 5.92777 35.6292 6.73967C35.5439 8.16293 35.6624 9.23405 37.2556 9.97258C38.0759 10.3541 38.7966 11.8556 38.8677 12.9023C39.0764 15.9836 39.01 19.0893 38.9246 22.1853C38.8251 25.7508 36.331 28.8712 32.9454 29.82C32.1062 30.0499 31.2527 30.182 29.8918 30.4705ZM19.6072 1.41343C15.7428 1.41343 11.8783 1.39875 8.01388 1.42321C6.5013 1.43299 4.87017 1.83894 4.82276 3.59968C4.75163 6.01581 3.67054 8.73517 6.26422 10.7502C6.89485 11.2442 7.03236 12.6577 7.07978 13.6604C7.19358 16.096 7.1509 18.5415 7.10823 20.9772C7.08452 22.42 7.663 23.0314 9.07601 23.0265C16.013 22.9972 22.9548 22.9874 29.8918 23.0314C31.4708 23.0412 31.9687 22.288 31.9402 20.7914C31.8975 18.4339 31.8738 16.0716 31.9592 13.7142C31.9924 12.7702 32.035 11.391 32.5993 10.9801C34.7093 9.44925 34.2304 7.32658 34.2352 5.28706C34.2446 2.14218 33.5808 1.44277 30.4893 1.40854C26.8619 1.37919 23.2346 1.40854 19.6072 1.41343ZM19.2705 28.7636C22.9026 28.7636 26.5395 28.8223 30.1716 28.7489C34.752 28.656 37.5211 25.7361 37.5638 21.0604C37.5875 18.6149 37.5448 16.1743 37.578 13.7288C37.597 12.1735 37.2414 10.8334 35.4822 10.8334C33.7705 10.8334 33.2963 12.1344 33.3011 13.6946C33.3058 16.2183 33.2773 18.7469 33.3058 21.2707C33.3342 23.4031 32.3148 24.4547 30.2949 24.4596C23.1065 24.4742 15.9182 24.4791 8.73461 24.4547C6.72416 24.4498 5.69522 23.3884 5.72367 21.256C5.75686 18.6491 5.73315 16.0422 5.72367 13.4354C5.71893 11.9339 5.112 10.8236 3.54251 10.8432C1.94458 10.8627 1.44671 12.017 1.45619 13.5087C1.47042 16.0325 1.44197 18.5611 1.46093 21.0848C1.50361 25.7703 4.26324 28.6658 8.85315 28.7538C12.3193 28.8125 15.7949 28.7636 19.2705 28.7636Z" fill="#797979"/>
</g>
<defs>
<clipPath id="clip0">
<rect width="39" height="37" fill="white"/>
</clipPath>
</defs>
</svg>
